<svg width="48" height="48" viewBox="0 0 48 48" fill="none" xmlns="http://www.w3.org/2000/svg">
<path d="M42.8571 0H5.14286C2.30357 0 0 2.30357 0 5.14286V42.8571C0 45.6964 2.30357 48 5.14286 48H42.8571C45.6964 48 48 45.6964 48 42.8571V5.14286C48 2.30357 45.6964 0 42.8571 0ZM29.7107 41.1107C28.8107 41.2714 28.4786 40.7143 28.4786 40.2536C28.4786 39.675 28.5 36.7179 28.5 34.3286C28.5 32.6571 27.9429 31.5964 27.2893 31.0393C31.2536 30.6 35.4321 30.0536 35.4321 23.2071C35.4321 21.2571 34.7357 20.2821 33.6 19.0286C33.7821 18.5679 34.3929 16.6714 33.4179 14.2071C31.9286 13.7464 28.5214 16.125 28.5214 16.125C27.1071 15.7286 25.575 15.525 24.0643 15.525C22.5536 15.525 21.0214 15.7286 19.6071 16.125C19.6071 16.125 16.2 13.7464 14.7107 14.2071C13.7357 16.6607 14.3357 18.5571 14.5286 19.0286C13.3929 20.2821 12.8571 21.2571 12.8571 23.2071C12.8571 30.0214 16.8536 30.6 20.8179 31.0393C20.3036 31.5 19.8429 32.2929 19.6821 33.4286C18.6643 33.8893 16.0607 34.6821 14.5071 31.9393C13.5321 30.2464 11.775 30.1071 11.775 30.1071C10.0393 30.0857 11.6571 31.2 11.6571 31.2C12.8143 31.7357 13.6286 33.7929 13.6286 33.7929C14.6679 36.975 19.6393 35.9036 19.6393 35.9036C19.6393 37.3929 19.6607 39.8143 19.6607 40.2536C19.6607 40.7143 19.3393 41.2714 18.4286 41.1107C11.3571 38.7429 6.40714 32.0143 6.40714 24.15C6.40714 14.3143 13.9286 6.84643 23.7643 6.84643C33.6 6.84643 41.5714 14.3143 41.5714 24.15C41.5821 32.0143 36.7821 38.7536 29.7107 41.1107ZM19.2 34.5643C18.9964 34.6071 18.8036 34.5214 18.7821 34.3821C18.7607 34.2214 18.9 34.0821 19.1036 34.0393C19.3071 34.0179 19.5 34.1036 19.5214 34.2429C19.5536 34.3821 19.4143 34.5214 19.2 34.5643ZM18.1821 34.4679C18.1821 34.6071 18.0214 34.725 17.8071 34.725C17.5714 34.7464 17.4107 34.6286 17.4107 34.4679C17.4107 34.3286 17.5714 34.2107 17.7857 34.2107C17.9893 34.1893 18.1821 34.3071 18.1821 34.4679ZM16.7143 34.35C16.6714 34.4893 16.4571 34.5536 16.275 34.4893C16.0714 34.4464 15.9321 34.2857 15.975 34.1464C16.0179 34.0071 16.2321 33.9429 16.4143 33.9857C16.6286 34.05 16.7679 34.2107 16.7143 34.35ZM15.3964 33.7714C15.3 33.8893 15.0964 33.8679 14.9357 33.7071C14.775 33.5679 14.7321 33.3643 14.8393 33.2679C14.9357 33.15 15.1393 33.1714 15.3 33.3321C15.4393 33.4714 15.4929 33.6857 15.3964 33.7714ZM14.4214 32.7964C14.325 32.8607 14.1429 32.7964 14.025 32.6357C13.9071 32.475 13.9071 32.2929 14.025 32.2179C14.1429 32.1214 14.325 32.1964 14.4214 32.3571C14.5393 32.5179 14.5393 32.7107 14.4214 32.7964V32.7964ZM13.725 31.7571C13.6286 31.8536 13.4679 31.8 13.35 31.6929C13.2321 31.5536 13.2107 31.3929 13.3071 31.3179C13.4036 31.2214 13.5643 31.275 13.6821 31.3821C13.8 31.5214 13.8214 31.6821 13.725 31.7571ZM13.0071 30.9643C12.9643 31.0607 12.825 31.0821 12.7071 31.0071C12.5679 30.9429 12.5036 30.825 12.5464 30.7286C12.5893 30.6643 12.7071 30.6321 12.8464 30.6857C12.9857 30.7607 13.05 30.8786 13.0071 30.9643Z" fill="#04D361"/>
</svg>
