<svg width="48" height="48" viewBox="0 0 48 48" fill="none" xmlns="http://www.w3.org/2000/svg">
<path d="M23.3759 0C0.317523 7.91066e-10 0.317498 0.20393 0.317523 24.585C0.317548 48.9662 -4.49788 47.9947 23.3759 47.9947C51.2496 47.9947 47.8714 47.9947 47.8714 24.0754C47.8714 0.155936 47.8714 -8.40372e-10 23.3759 0ZM34.7005 17.2129L30.9163 35.3176C30.6374 36.6014 29.8843 36.9129 28.8336 36.3088L23.069 31.995L20.289 34.7135C19.9822 35.025 19.7219 35.2893 19.1268 35.2893L19.5359 29.3331L30.219 19.535C30.6839 19.1196 30.1167 18.8837 29.5031 19.299L16.3003 27.7378L10.6101 25.9349C9.3735 25.5384 9.34561 24.6794 10.8704 24.0753L33.1013 15.3722C34.1334 14.9946 35.0352 15.6271 34.7005 17.2129Z" fill="#04D361"/>
</svg>
