<svg width="48" height="48" viewBox="0 0 48 48" fill="none" xmlns="http://www.w3.org/2000/svg">
<path d="M24 9.72857C16.2107 9.72857 9.87857 16.0607 9.86786 23.85C9.86786 26.5179 10.6179 29.1214 12.0321 31.3607L12.3643 31.8964L10.9393 37.1036L16.2857 35.7L16.8 36.0107C18.9643 37.2964 21.45 37.9821 23.9893 37.9821H24C31.7786 37.9821 38.2821 31.65 38.2821 23.8607C38.2821 20.0893 36.6536 16.5429 33.9857 13.875C31.3071 11.1964 27.7714 9.72857 24 9.72857ZM32.3036 29.9143C31.95 30.9107 30.2571 31.8107 29.4429 31.9286C28.0929 32.1321 27.0429 32.025 24.3536 30.8679C20.1 29.025 17.3143 24.7393 17.1 24.4607C16.8857 24.1821 15.3643 22.1571 15.3643 20.0679C15.3643 17.9786 16.4571 16.95 16.8536 16.5214C17.2393 16.0929 17.7 15.9857 17.9893 15.9857C18.2679 15.9857 18.5571 15.9857 18.8036 15.9964C19.0607 16.0071 19.4143 15.9 19.7571 16.725C20.1107 17.5714 20.9571 19.6607 21.0643 19.875C21.1714 20.0893 21.2464 20.3357 21.0964 20.6143C20.2821 22.2429 19.4143 22.1786 19.8536 22.9286C21.4929 25.7464 23.1321 26.7214 25.6286 27.975C26.0571 28.1893 26.3036 28.1571 26.55 27.8679C26.7964 27.5893 27.6107 26.625 27.8893 26.2071C28.1679 25.7786 28.4571 25.8536 28.8429 25.9929C29.2286 26.1321 31.3179 27.1607 31.7464 27.375C32.175 27.5893 32.4536 27.6964 32.5607 27.8679C32.6571 28.0714 32.6571 28.9286 32.3036 29.9143V29.9143ZM42.8571 0H5.14286C2.30357 0 0 2.30357 0 5.14286V42.8571C0 45.6964 2.30357 48 5.14286 48H42.8571C45.6964 48 48 45.6964 48 42.8571V5.14286C48 2.30357 45.6964 0 42.8571 0ZM23.9893 40.8429C21.1393 40.8429 18.3429 40.125 15.8679 38.775L6.85714 41.1429L9.26786 32.3357C7.77857 29.7643 6.99643 26.8393 6.99643 23.8393C7.00714 14.475 14.625 6.85714 23.9893 6.85714C28.5321 6.85714 32.7964 8.625 36.0107 11.8393C39.2143 15.0536 41.1429 19.3179 41.1429 23.8607C41.1429 33.225 33.3536 40.8429 23.9893 40.8429Z" fill="#04D361"/>
</svg>
